<svg id="vector" xmlns="http://www.w3.org/2000/svg" width="38" height="38" viewBox="0 0 512 512"><path fill="#E84B35" d="M446,0C451,2.32 453.26,5.3 456,10C456.72,12.66 457.27,15.11 457.7,17.81C457.83,18.54 457.96,19.28 458.09,20.03C458.35,21.57 458.61,23.11 458.87,24.65C459.25,27 459.65,29.34 460.06,31.68C460.32,33.18 460.57,34.68 460.83,36.19C460.95,36.88 461.07,37.58 461.19,38.29C461.83,42.23 462.12,46.01 462,50C463.05,50.07 463.05,50.07 464.12,50.14C472.3,50.74 480.3,51.89 488.38,53.31C489.61,53.51 490.84,53.71 492.11,53.92C500.02,55.3 504.79,56.62 510.38,62.5C512.72,67.56 512.97,72.52 512,78C509.29,82.55 506.02,86.26 502.29,89.97C501.73,90.54 501.17,91.1 500.59,91.68C498.75,93.53 496.91,95.37 495.06,97.2C493.78,98.49 492.49,99.78 491.21,101.06C488.52,103.75 485.83,106.44 483.14,109.12C479.69,112.56 476.25,116.01 472.81,119.46C470.16,122.12 467.51,124.77 464.85,127.42C463.58,128.69 462.31,129.96 461.04,131.23C459.27,133.01 457.49,134.78 455.71,136.54C455.19,137.07 454.67,137.6 454.13,138.14C449.33,142.88 446.42,144.29 439.69,144.28C431.95,144.17 424.58,142.96 417,141.5C414.48,141.03 411.96,140.56 409.44,140.09C407.8,139.78 407.8,139.78 406.12,139.46C400.27,138.41 400.27,138.41 394.94,140.38C394.05,141.32 394.05,141.32 393.13,142.28C392.15,143.3 392.15,143.3 391.14,144.33C390.48,145.05 389.81,145.76 389.13,146.5C388.44,147.22 387.75,147.93 387.04,148.67C385.35,150.43 383.67,152.21 382,154C383.32,157.76 384.92,160.36 387.5,163.38C408.7,189.45 422.25,221.22 429,254C429.16,254.73 429.32,255.47 429.49,256.22C435.3,283.33 434.2,315.09 428,342C427.82,342.83 427.64,343.66 427.45,344.51C419.39,380.56 402.11,413.61 377.07,440.74C375.22,442.76 373.45,444.83 371.69,446.94C363.3,456.52 353.28,464.55 343,472C342.46,472.4 341.92,472.79 341.37,473.2C316.73,491.07 287.77,503 258,509C257.23,509.16 256.46,509.32 255.66,509.49C228.35,514.99 197.09,514.2 170,508C169.17,507.82 168.34,507.64 167.49,507.45C131.44,499.39 98.39,482.1 71.26,457.07C69.24,455.22 67.17,453.45 65.06,451.69C55.48,443.3 47.45,433.28 40,423C39.6,422.46 39.21,421.92 38.8,421.37C20.89,396.67 9.13,367.79 3,338C2.84,337.27 2.68,336.53 2.51,335.78C-4.94,301 -1.22,261.45 10,228C10.28,227.15 10.57,226.3 10.86,225.43C17.29,206.59 26.13,188.05 38,172C38.76,170.97 39.51,169.95 40.29,168.89C51.72,153.62 64.07,139.92 79,128C79.79,127.34 80.58,126.68 81.4,126C108.07,103.99 141.02,89.17 175,83C175.68,82.88 176.36,82.75 177.06,82.62C189.99,80.33 202.57,79.47 215.69,79.56C217.05,79.57 217.05,79.57 218.45,79.57C233.3,79.64 247.48,80.66 262,84C262.83,84.18 263.66,84.36 264.51,84.55C296.08,91.61 325.16,105.68 350.27,126C352.81,127.86 355.03,129 358,130C364.74,126.07 371,121.4 374,114C374.42,104.19 371.67,94.66 369.34,85.2C367.64,78.04 365.73,69.8 369.68,63.2C372.11,59.85 374.79,56.93 377.71,54.03C378.27,53.46 378.83,52.9 379.41,52.32C381.25,50.47 383.09,48.63 384.94,46.8C386.22,45.51 387.51,44.22 388.79,42.94C391.48,40.25 394.17,37.56 396.86,34.88C400.31,31.44 403.75,27.99 407.19,24.54C409.84,21.88 412.49,19.23 415.15,16.58C416.42,15.31 417.69,14.04 418.96,12.77C420.73,10.99 422.51,9.22 424.29,7.46C424.81,6.93 425.33,6.4 425.87,5.86C432.16,-0.36 437.32,-0.93 446,0Z" id="path_0"/><path fill="#EAEAEA" d="M298,187C298.99,188.49 298.99,188.49 300,190C281.19,208.81 262.38,227.62 243,247C238.05,245.35 233.1,243.7 228,242C213.93,238.48 200.1,241.4 187.63,248.38C173.91,256.9 165.16,269.03 161.4,284.91C158.54,299.89 162.2,315.35 170.55,327.97C171.03,328.64 171.51,329.31 172,330C173.08,331.55 173.08,331.55 174.19,333.13C183.37,343.49 197.27,350.08 210.94,351.37C227.41,351.87 241.82,347.15 254.53,336.39C264.11,327.33 270.6,313.09 271.34,299.96C271.37,298.58 271.38,297.19 271.38,295.81C271.37,295.08 271.37,294.35 271.37,293.59C271.19,284.74 268.26,277.14 265,269C283.81,250.19 302.62,231.38 322,212C334.96,224.96 343.62,243.3 348,261C348.27,262.06 348.27,262.06 348.55,263.13C357.26,297.94 351.06,335.45 333.02,366.32C330.31,370.79 327.25,374.92 324,379C323.59,379.52 323.18,380.04 322.75,380.57C300.22,408.73 268.7,426.81 232.75,431.28C215.2,433.21 198.07,432.61 181,428C180.24,427.8 179.48,427.59 178.7,427.38C162.11,422.76 146.38,414.87 133,404C132.49,403.59 131.98,403.18 131.45,402.76C102.88,379.91 84.37,347.44 80,311C78.74,294.05 79.39,277.4 84,261C84.31,259.87 84.31,259.87 84.62,258.72C89.24,242.12 97.12,226.39 108,213C108.41,212.49 108.82,211.98 109.24,211.45C127.77,188.28 152.26,171.7 181,164C181.77,163.79 182.55,163.58 183.35,163.37C222.18,153.32 266.2,162.71 298,187Z" id="path_1"/><path fill="#05A8E2" d="M446,0C451,2.32 453.26,5.3 456,10C456.72,12.66 457.27,15.11 457.7,17.81C457.89,18.91 457.89,18.91 458.09,20.03C458.35,21.57 458.61,23.11 458.87,24.65C459.25,27 459.65,29.34 460.06,31.68C460.32,33.18 460.57,34.68 460.83,36.19C460.95,36.88 461.07,37.58 461.19,38.29C461.83,42.23 462.12,46.01 462,50C463.05,50.07 463.05,50.07 464.12,50.14C472.3,50.74 480.3,51.89 488.38,53.31C489.61,53.51 490.84,53.71 492.11,53.92C500.02,55.3 504.79,56.62 510.38,62.5C512.72,67.56 512.97,72.52 512,78C509.29,82.55 506.02,86.26 502.29,89.97C501.73,90.54 501.17,91.1 500.59,91.68C498.75,93.53 496.91,95.37 495.06,97.2C493.78,98.49 492.49,99.78 491.21,101.06C488.52,103.75 485.83,106.44 483.14,109.12C479.69,112.56 476.25,116.01 472.81,119.46C470.16,122.12 467.51,124.77 464.85,127.42C463.58,128.69 462.31,129.96 461.04,131.23C459.27,133.01 457.49,134.78 455.71,136.54C455.19,137.07 454.67,137.6 454.13,138.14C449.54,142.68 446.6,144.29 440.16,144.36C430.78,144.22 421.67,142.52 412.47,140.8C409.48,140.25 406.48,139.72 403.48,139.2C401.56,138.85 399.64,138.49 397.72,138.14C396.39,137.91 396.39,137.91 395.03,137.67C388.67,136.46 384.31,134.39 379.73,129.65C377.75,126.62 377.07,124.16 376.38,120.63C375.71,117.34 375.04,114.14 374.08,110.94C372.39,105.19 371.45,99.26 370.38,93.38C370.15,92.18 369.92,90.99 369.68,89.75C365.98,69.4 365.98,69.4 369.67,63.19C372.11,59.85 374.79,56.93 377.71,54.03C378.27,53.46 378.83,52.9 379.41,52.32C381.25,50.47 383.09,48.63 384.94,46.8C386.22,45.51 387.51,44.22 388.79,42.94C391.48,40.25 394.17,37.56 396.86,34.88C400.31,31.44 403.75,27.99 407.19,24.54C409.84,21.88 412.49,19.23 415.15,16.58C416.42,15.31 417.69,14.04 418.96,12.77C420.73,10.99 422.51,9.22 424.29,7.46C424.81,6.93 425.33,6.4 425.87,5.86C432.16,-0.36 437.32,-0.93 446,0Z" id="path_2"/><path fill="#E84B36" d="M215,239.56C215.72,239.56 216.45,239.56 217.19,239.55C225.75,239.74 234.34,242.17 242,246C240.67,248.97 239.21,251.02 236.88,253.3C236.25,253.92 235.62,254.54 234.97,255.18C233.95,256.17 233.95,256.17 232.91,257.18C231.47,258.6 230.03,260.02 228.6,261.43C226.33,263.66 224.06,265.88 221.79,268.1C219.59,270.24 217.41,272.4 215.22,274.55C214.54,275.21 213.87,275.87 213.17,276.54C208.62,281.04 205.33,284.91 204.63,291.5C205.2,296.9 206.96,300.31 211.06,303.81C214.85,306.63 217.02,307.42 221.8,307.34C229.11,306.21 234.82,299.57 239.71,294.51C240.41,293.81 241.1,293.11 241.81,292.38C244.01,290.16 246.19,287.92 248.38,285.69C250.58,283.44 252.79,281.18 255,278.94C256.37,277.55 257.74,276.15 259.1,274.75C259.71,274.13 260.33,273.5 260.96,272.86C261.5,272.3 262.04,271.75 262.6,271.18C264,270 264,270 266,270C266.63,271.33 267.26,272.66 267.88,274C268.22,274.74 268.57,275.48 268.93,276.25C274.6,290.83 273,305.87 267,320C264.93,323.9 262.63,327.46 260,331C259.26,332.05 258.52,333.1 257.75,334.19C247.32,344.85 232.98,352.05 217.91,352.38C201.13,352.34 187.23,346.56 175,335C163.37,321.79 158.89,306.35 159.8,289.11C160.96,276.6 167.72,263.43 177,255C188.44,246.09 200.14,239.62 215,239.56Z" id="path_3"/><path fill="#323232" d="M376,114C376.16,114.87 376.32,115.74 376.48,116.63C378.22,125.95 378.22,125.95 384,133C388.46,135.03 393.17,136.22 398,137C391.84,144.49 385.1,151.55 377.69,157.81C371.16,163.5 365.16,169.74 359.06,175.87C357.66,177.28 356.26,178.68 354.86,180.09C351.86,183.1 348.85,186.12 345.85,189.13C341.11,193.9 336.36,198.66 331.61,203.43C318.1,216.97 304.6,230.51 291.11,244.06C283.65,251.56 276.18,259.05 268.71,266.53C263.99,271.26 259.27,276 254.56,280.75C251.62,283.69 248.69,286.63 245.75,289.57C244.39,290.94 243.03,292.3 241.67,293.67C239.82,295.54 237.96,297.4 236.1,299.26C235.56,299.8 235.03,300.34 234.48,300.9C230.41,304.93 225.95,308.43 220,308.44C215.06,308.22 211.96,306.03 208.55,302.5C205.47,298.97 204.14,296.44 203.69,291.75C204.3,284.36 208.99,279.57 214.05,274.59C214.96,273.69 214.96,273.69 215.88,272.76C217.89,270.75 219.91,268.75 221.93,266.75C223.38,265.3 224.82,263.85 226.27,262.41C229.38,259.3 232.5,256.2 235.62,253.1C240.55,248.19 245.48,243.27 250.41,238.36C258.2,230.58 266,222.8 273.81,215.03C287.78,201.13 301.73,187.21 315.69,173.28C320.58,168.4 325.48,163.52 330.38,158.65C333.43,155.61 336.48,152.57 339.53,149.52C340.94,148.12 342.36,146.71 343.77,145.31C353,136.19 353,136.19 361.68,126.56C363.93,123.91 366.36,121.47 368.81,119C369.29,118.51 369.77,118.02 370.26,117.52C373.76,114 373.76,114 376,114Z" id="path_4"/></svg>